<svg width="20" height="24" viewBox="0 0 20 24" fill="none" xmlns="http://www.w3.org/2000/svg">
<path fill-rule="evenodd" clip-rule="evenodd" d="M2.28045 0.75H18.2596C19.0208 0.75 19.6401 1.36929 19.6402 2.13055V16.6998C19.6402 16.9432 19.4429 17.1404 19.1996 17.1404C18.9562 17.1404 18.7589 16.9431 18.7589 16.6998V2.13055C18.7589 1.8552 18.5349 1.63118 18.2596 1.63118H2.28045C2.0051 1.63118 1.78108 1.8552 1.78108 2.13055V21.8694C1.78108 22.1447 2.0051 22.3688 2.28045 22.3688H10.27C10.5134 22.3688 10.7107 22.5661 10.7107 22.8094C10.7107 23.0527 10.5133 23.25 10.27 23.25H2.28045C1.5192 23.25 0.899902 22.6307 0.899902 21.8695V2.13055C0.899902 1.36929 1.51925 0.75 2.28045 0.75ZM6.53956 6.83046C6.53956 6.5871 6.73687 6.38984 6.98018 6.38984C7.22349 6.38984 7.4208 6.5871 7.42074 6.83041C7.42074 7.85075 6.59057 8.68093 5.57023 8.68093C4.54989 8.68093 3.71971 7.85075 3.71971 6.83041C3.71971 5.81007 4.54983 4.97989 5.57023 4.97989C5.81359 4.97989 6.01084 5.17714 6.01084 5.42051C6.01084 5.66387 5.81354 5.86112 5.57023 5.86112C5.03574 5.86112 4.60089 6.29597 4.60089 6.83046C4.60089 7.36495 5.03574 7.7998 5.57023 7.7998C6.10472 7.7998 6.53956 7.36495 6.53956 6.83046ZM6.53956 12C6.53956 11.7566 6.73687 11.5594 6.98018 11.5594C7.22349 11.5594 7.4208 11.7567 7.42074 11.9999C7.42074 13.0203 6.59057 13.8505 5.57023 13.8505C4.54989 13.8505 3.71971 13.0203 3.71971 11.9999C3.71971 10.9796 4.54983 10.1494 5.57023 10.1494C5.81359 10.1494 6.01084 10.3467 6.01084 10.59C6.01084 10.8334 5.81354 11.0307 5.57023 11.0307C5.03574 11.0307 4.60089 11.4655 4.60089 12C4.60089 12.5345 5.03574 12.9693 5.57023 12.9693C6.10472 12.9693 6.53956 12.5345 6.53956 12ZM12.1499 12.4993H8.86004C8.61673 12.4993 8.41942 12.6966 8.41942 12.9399C8.41942 13.1833 8.61667 13.3806 8.86004 13.3806H12.1499C12.3932 13.3806 12.5905 13.1833 12.5905 12.9399C12.5905 12.6966 12.3932 12.4993 12.1499 12.4993ZM8.86004 10.6195H12.1499C12.3932 10.6195 12.5905 10.8168 12.5905 11.0601C12.5905 11.3035 12.3932 11.5007 12.1499 11.5007H8.86004C8.61667 11.5007 8.41942 11.3035 8.41942 11.0601C8.41942 10.8168 8.61673 10.6195 8.86004 10.6195ZM11.2099 17.669H8.86004C8.61673 17.669 8.41942 17.8663 8.41942 18.1096C8.41942 18.353 8.61667 18.5503 8.86004 18.5503H11.2099C11.4532 18.5503 11.6505 18.353 11.6505 18.1096C11.6505 17.8663 11.4532 17.669 11.2099 17.669ZM8.86004 15.7892H12.1499C12.3932 15.7892 12.5905 15.9865 12.5905 16.2298C12.5905 16.4732 12.3932 16.6704 12.1499 16.6704H8.86004C8.61667 16.6704 8.41942 16.4732 8.41942 16.2298C8.41942 15.9865 8.61673 15.7892 8.86004 15.7892ZM16.3797 7.32961H8.86004C8.61673 7.32961 8.41942 7.52687 8.41942 7.77023C8.41942 8.0136 8.61667 8.21085 8.86004 8.21085H16.3796C16.6229 8.21085 16.8202 8.0136 16.8202 7.77023C16.8202 7.52687 16.623 7.32961 16.3797 7.32961ZM8.86004 5.4498H14.4997C14.7431 5.4498 14.9404 5.64705 14.9404 5.89041C14.9404 6.13378 14.7431 6.33103 14.4997 6.33103H8.86004C8.61667 6.33103 8.41942 6.13378 8.41942 5.89041C8.41942 5.64705 8.61673 5.4498 8.86004 5.4498ZM6.98018 16.7291C6.73687 16.7291 6.53956 16.9263 6.53956 17.1697C6.53956 17.7042 6.10472 18.139 5.57023 18.139C5.03574 18.139 4.60089 17.7042 4.60089 17.1697C4.60089 16.6352 5.03574 16.2004 5.57023 16.2004C5.81354 16.2004 6.01084 16.0031 6.01084 15.7598C6.01084 15.5164 5.81359 15.3191 5.57023 15.3191C4.54983 15.3191 3.71971 16.1493 3.71971 17.1696C3.71971 18.19 4.54989 19.0202 5.57023 19.0202C6.59057 19.0202 7.42074 18.19 7.42074 17.1696C7.4208 16.9263 7.22349 16.7291 6.98018 16.7291Z" fill="#3D4E54"/>
</svg>
