<svg width="37" height="36" viewBox="0 0 37 36" fill="none" xmlns="http://www.w3.org/2000/svg">
<path d="M23.9647 12.5841C23.9647 13.2657 23.4684 13.6803 23.1061 13.9845C22.9688 14.0997 22.7134 14.31 22.7141 14.3885C22.7166 14.6966 22.4689 14.9426 22.1608 14.9426C22.1592 14.9426 22.1577 14.9426 22.1561 14.9426C21.8502 14.9426 21.6009 14.7041 21.5984 14.3976C21.5935 13.7935 22.0344 13.4317 22.3887 13.1342C22.6667 12.9008 22.849 12.7365 22.849 12.5862C22.849 12.2819 22.6014 12.0344 22.2971 12.0344C21.9927 12.0344 21.7451 12.2819 21.7451 12.5862C21.7451 12.8943 21.4954 13.1441 21.1873 13.1441C20.8791 13.1441 20.6294 12.8943 20.6294 12.5862C20.6294 11.6668 21.3775 10.9187 22.297 10.9187C23.2166 10.9186 23.9647 11.6646 23.9647 12.5841ZM22.1715 15.4575C21.8634 15.4575 21.626 15.7073 21.626 16.0154V16.0197C21.626 16.3278 21.8635 16.5754 22.1715 16.5754C22.4796 16.5754 22.7294 16.3235 22.7294 16.0154C22.7294 15.7073 22.4797 15.4575 22.1715 15.4575ZM10.9272 19.3435C10.6191 19.3435 10.3693 19.5932 10.3693 19.9013C10.3693 20.2094 10.6191 20.4592 10.9272 20.4592H10.9737C11.2818 20.4592 11.5315 20.2094 11.5315 19.9013C11.5315 19.5932 11.2818 19.3435 10.9737 19.3435H10.9272ZM12.866 19.3435C12.5579 19.3435 12.3081 19.5932 12.3081 19.9013C12.3081 20.2094 12.5579 20.4592 12.866 20.4592H12.9124C13.2205 20.4592 13.4702 20.2094 13.4702 19.9013C13.4702 19.5932 13.2205 19.3435 12.9124 19.3435H12.866ZM29.25 10.4334V16.7124C29.25 18.1991 28.0579 19.4055 26.5713 19.4055H19.3367C19.1953 19.4055 19.0788 19.4047 18.9814 19.4026C18.8793 19.4005 18.7644 19.3997 18.7196 19.4046C18.6729 19.4356 18.5585 19.5405 18.4482 19.642C18.4045 19.6823 18.355 19.7265 18.3017 19.7752L16.2549 21.6408C16.0916 21.7898 15.85 21.8283 15.6479 21.7392C15.4457 21.65 15.3037 21.4498 15.3037 21.2288V15.3145H9.45992C8.58831 15.3145 7.8657 16.0288 7.8657 16.9003V23.1793C7.8657 24.0508 8.58837 24.736 9.45992 24.736H17.5409C17.6801 24.736 17.8103 24.7999 17.913 24.8938L19.5806 26.4312V21.1292C19.5806 20.8211 19.8303 20.5714 20.1384 20.5714C20.4465 20.5714 20.6963 20.8211 20.6963 21.1292V27.6956C20.6963 27.9166 20.5698 28.1138 20.3676 28.203C20.2952 28.2349 20.2226 28.2475 20.1465 28.2475C20.0099 28.2475 19.8752 28.1914 19.7704 28.0957L17.3247 25.8517H9.45992C7.97318 25.8517 6.75 24.6659 6.75 23.1792V16.9003C6.75 15.4136 7.97318 14.1988 9.45992 14.1988H15.3037V10.4334C15.3037 8.94667 16.5363 7.75256 18.023 7.75256H26.5713C28.0579 7.75256 29.25 8.94667 29.25 10.4334ZM28.1343 10.4334C28.1343 9.56186 27.4427 8.86827 26.5713 8.86827H18.023C17.1514 8.86827 16.4194 9.56186 16.4194 10.4334V14.7619V19.9644L17.541 18.9508C17.593 18.9034 17.6512 18.86 17.6936 18.8208C18.2058 18.3489 18.3368 18.2735 19.0049 18.2872C19.096 18.2891 19.2045 18.2898 19.3367 18.2898H26.5713C27.4427 18.2898 28.1343 17.5839 28.1343 16.7125V10.4334Z" fill="#3D4E54"/>
</svg>
