<svg width="20" height="24" viewBox="0 0 20 24" fill="none" xmlns="http://www.w3.org/2000/svg">
<path fill-rule="evenodd" clip-rule="evenodd" d="M15.7556 20.3674C18.3943 17.6179 20 14.2178 20 10.4204C20 4.66637 15.5216 0 10 0C4.47836 0 0 4.66637 0 10.4204C0 14.2178 1.60567 17.6179 4.24443 20.3674C6.23396 22.4405 8.77181 24 10 24C11.2282 24 13.766 22.4405 15.7556 20.3674ZM10 1.88595C14.523 1.88595 18.1912 5.70822 18.1912 10.4204C18.1912 13.6675 16.8006 16.6123 14.477 19.0334C12.7952 20.7859 10.6338 22.114 10 22.114C9.36626 22.114 7.20492 20.7859 5.52305 19.0334C3.19949 16.6123 1.80882 13.6675 1.80882 10.4204C1.80882 5.70822 5.47709 1.88595 10 1.88595ZM10.1267 14.2042C7.86105 14.2042 6.02251 12.3669 6.02251 10.1021C6.02251 7.83735 7.86105 6 10.1267 6C12.3923 6 14.2309 7.83735 14.2309 10.1021C14.2309 12.3669 12.3923 14.2042 10.1267 14.2042ZM12.3449 10.1021C12.3449 11.325 11.351 12.3183 10.1267 12.3183C8.90236 12.3183 7.90846 11.325 7.90846 10.1021C7.90846 8.8792 8.90236 7.88595 10.1267 7.88595C11.351 7.88595 12.3449 8.8792 12.3449 10.1021Z" fill="#F9F9F9"/>
</svg>
