<svg width="26" height="24" viewBox="0 0 26 24" fill="none" xmlns="http://www.w3.org/2000/svg">
<path fill-rule="evenodd" clip-rule="evenodd" d="M11.9084 2.37482C12.2611 2.65802 12.5868 2.97362 12.8782 3.3179C13.1695 2.97362 13.4952 2.65802 13.8479 2.37482C15.1237 1.35038 16.7523 0.749969 18.3809 0.749969C22.1716 0.749969 25.1064 3.68475 25.1064 7.47551C25.1064 12.1223 20.9488 15.913 14.5901 21.538L12.8782 23.25L11.1662 21.538C4.80751 15.913 0.649902 12.1223 0.649902 7.47551C0.649902 3.68475 3.58468 0.749969 7.37545 0.749969C9.00403 0.749969 10.6326 1.35038 11.9084 2.37482ZM12.8782 21.3408L13.6647 20.5542L13.6956 20.5269C16.8977 17.6943 19.4375 15.4148 21.1899 13.2827C22.9268 11.1694 23.7564 9.35714 23.7564 7.47551C23.7564 4.43034 21.4261 2.09997 18.3809 2.09997C16.7056 2.09997 15.0015 2.89847 13.9087 4.18993L12.8782 5.40787L11.8476 4.18993C10.7548 2.89847 9.05074 2.09997 7.37545 2.09997C4.33027 2.09997 1.9999 4.43034 1.9999 7.47551C1.9999 9.35714 2.82949 11.1694 4.56647 13.2827C6.31886 15.4148 8.85866 17.6943 12.0607 20.5269L12.0916 20.5542L12.8782 21.3408Z" fill="#3D4E54"/>
</svg>
