<svg width="126" height="27" viewBox="0 0 126 27" fill="none" xmlns="http://www.w3.org/2000/svg">
<path fill-rule="evenodd" clip-rule="evenodd" d="M18.8588 1.18941C17.9963 1.06454 17.1338 0.939661 16.2714 0.832625C15.7845 0.779108 15.5062 1.11805 15.3393 1.65323L15.3393 1.65324L15.3393 1.65325C15.1028 2.42033 14.8663 3.18741 14.6438 3.97234L14.6436 3.97303L14.6433 3.97378C13.8645 6.72054 13.0856 9.46733 12.2928 12.3033C12.2742 12.2498 12.2572 12.2061 12.2423 12.1678C12.2124 12.0912 12.1908 12.0357 12.1815 11.9643C12.1379 11.4838 12.0937 11.004 12.0496 10.5245V10.5245C11.8823 8.70784 11.7154 6.89535 11.5833 5.06053C11.4859 3.75826 11.1381 3.38364 10.1505 3.9545C9.81659 4.15073 9.52446 4.7751 9.39925 5.2746C9.01902 6.84446 8.66351 8.41432 8.308 9.98417C8.13025 10.7691 7.9525 11.554 7.77165 12.339L7.59081 12.3568C7.50734 11.8306 7.4204 11.3088 7.33346 10.787L7.33345 10.7869L7.33344 10.7869C7.2465 10.2651 7.15956 9.74332 7.0761 9.21708L5.86583 1.83162C5.67107 0.707751 5.47632 0.529358 4.50254 0.529358H1.52556C0.510043 0.547197 0.343109 0.779108 0.537865 1.9565C0.927377 4.26669 1.31689 6.57242 1.7064 8.87814C2.09591 11.1839 2.48542 13.4896 2.87494 15.7998C3.76525 15.9603 4.29387 16.995 4.0852 18.0832C4.04347 18.3151 3.96 18.5292 3.86263 18.7254C4.78076 18.7432 5.54587 19.5282 5.67107 20.6877C5.81018 21.9365 5.15636 23.1674 4.19649 23.6134C4.39125 24.7016 4.586 24.8264 5.58761 24.7016C5.64191 24.6969 5.69528 24.6911 5.7482 24.6853C5.89859 24.6688 6.04534 24.6527 6.1997 24.6659C6.79787 24.7016 7.18739 24.3448 7.47952 23.6847C8.02205 22.4538 8.5785 21.2229 9.14886 20.0098C9.23817 19.8151 9.35617 19.6351 9.49547 19.4226C9.57313 19.3041 9.65741 19.1755 9.74703 19.0287C9.79848 19.1353 9.84768 19.2303 9.89302 19.3179C10.0071 19.5381 10.0967 19.7113 10.1365 19.9028C10.1918 20.1524 10.2475 20.4021 10.3033 20.6518L10.3033 20.652C10.5425 21.723 10.7821 22.7961 10.9851 23.881C11.1242 24.6124 11.472 24.9335 12.0563 24.88C12.1468 24.8724 12.2389 24.8687 12.3313 24.8651C12.8924 24.8429 13.4628 24.8203 13.7256 23.9166C13.976 23.0604 14.1986 22.2041 14.4073 21.3299C16.021 14.8721 17.6207 8.43215 19.2205 1.97434C19.3318 1.52836 19.2483 1.24293 18.8588 1.18941ZM101.727 9.09223C102.02 9.93067 102.562 10.5194 103.119 11.0545C103.828 11.7503 104.51 12.446 105.038 13.338C107.389 17.548 105.01 22.1327 102.562 23.881C101.811 24.4162 101.018 24.6838 100.239 24.6302C97.9992 24.88 95.9821 22.0435 95.6065 20.2418C95.537 19.9207 95.5926 19.6709 95.8152 19.439C95.9126 19.3409 96.0065 19.2383 96.1004 19.1357C96.1943 19.0332 96.2882 18.9306 96.3856 18.8325C97.7071 17.5302 97.9158 17.441 98.7783 18.547C99.0608 18.9258 99.4975 19.0766 99.9241 19.2238C99.9429 19.2303 99.9615 19.2367 99.9802 19.2432C99.9969 19.249 100.014 19.2548 100.03 19.2606C100.475 19.4212 100.948 19.4568 101.324 18.9395C101.727 18.4043 101.853 17.7978 101.658 17.1377C101.366 16.1387 100.865 15.3181 100.253 14.6046C100.04 14.3613 99.831 14.1141 99.6217 13.8668C99.0634 13.2075 98.5051 12.5482 97.8879 11.9643C96.1908 10.3588 96.469 6.36282 97.6793 4.56105C98.9452 2.67009 100.434 1.67109 102.159 1.51054C102.186 2.17059 102.506 2.72361 102.952 2.97336C102.938 3.02687 102.938 3.08039 102.938 3.13391C102.91 4.45402 103.758 5.45302 104.844 5.36382C105.191 5.34598 105.511 5.20327 105.789 4.98919C105.734 5.16759 105.682 5.35044 105.629 5.53329C105.577 5.71615 105.525 5.899 105.47 6.07739C105.275 6.73744 104.927 6.98719 104.384 6.88016C104.276 6.85698 104.167 6.83018 104.057 6.80322C103.743 6.72642 103.424 6.64825 103.105 6.64825C101.853 6.64825 101.254 7.7186 101.727 9.09223ZM83.2257 18.6899C83.1283 19.4213 82.9474 20.1349 82.7249 20.8128C82.1267 22.6502 81.0416 23.8276 79.4836 24.3271C78.0507 24.7909 76.6179 24.9515 75.2407 24.559C72.8201 23.8811 71.7351 21.9366 71.6516 18.4223C71.596 16.4957 71.6933 14.569 71.8603 12.6246C71.9798 11.3362 72.1035 10.0478 72.2273 8.75838C72.4206 6.74483 72.6142 4.72869 72.7923 2.70591C72.848 2.04586 73.0845 1.77827 73.5992 1.76043C73.94 1.74259 74.2808 1.71138 74.6216 1.68016C74.9625 1.64894 75.3033 1.61772 75.6441 1.59988C76.7431 1.52852 76.8265 1.61772 76.7153 2.93783L76.7147 2.94424C76.395 6.86674 76.0752 10.7892 75.7415 14.7117C75.6719 15.6037 75.6302 16.4778 75.7971 17.3341C75.978 18.351 76.451 18.7791 77.3274 18.6721C77.9394 18.6007 78.3707 18.2261 78.5933 17.4768C78.715 17.0554 78.7621 16.634 78.8093 16.2126L78.8093 16.2124C78.8161 16.1522 78.8228 16.092 78.8298 16.0318C79.2556 12.1466 79.458 8.27497 79.6603 4.40506C79.6893 3.85055 79.7183 3.29607 79.7479 2.74159C79.7896 2.0637 79.9566 1.74259 80.5408 1.72476C81.0138 1.70692 81.4868 1.6757 81.9598 1.64448C82.4327 1.61326 82.9057 1.58204 83.3787 1.5642C84.2134 1.52852 84.3107 1.61772 84.2412 2.61672C84.0603 5.32829 83.8517 8.03986 83.643 10.7514L83.2257 18.6899ZM68.8833 19.5283C69.5474 19.5696 69.9037 19.5918 70.0769 19.7813C70.2773 20.0007 70.2323 20.4443 70.1353 21.4014L70.1219 21.5448V21.5449C70.043 22.3872 69.9654 23.2154 69.9127 24.0594C69.8849 24.5589 69.718 24.8622 69.3006 24.8622C68.3171 24.8622 67.3308 24.901 66.3443 24.9397C64.1915 25.0243 62.038 25.1089 59.9106 24.7909C56.8084 24.327 55.0556 22.0436 54.2627 18.672C53.3028 14.6046 53.748 10.4838 55.8068 6.63048C57.1006 4.20434 58.7699 2.31337 61.1904 1.90307C65.4473 1.17166 69.0781 3.99027 70.2327 8.84255C71.0395 12.2142 70.6083 15.5144 69.1615 18.7612C69.0641 18.9753 68.9668 19.2072 68.8833 19.4212C68.8606 19.4212 68.8657 19.445 68.8759 19.4926L68.8759 19.4928L68.8792 19.5082L68.8833 19.5283ZM58.0326 13.7305C57.8518 16.1566 58.603 17.6195 60.4253 18.4401C61.9695 19.1358 63.5414 18.5828 64.8213 16.9059C66.7271 14.3727 66.4071 10.0913 64.2092 8.43224C62.8459 7.39757 60.0636 7.80787 58.9925 10.2518C58.4917 11.3579 58.13 12.4996 58.0326 13.7305ZM107.222 22.9176C107.111 24.3447 107.556 25.201 108.627 25.6827C109.532 26.093 110.464 25.7719 111.201 24.7729C112.314 23.2922 112.133 20.7769 110.839 19.7957C110.046 19.1892 108.405 19.4211 107.779 20.8661C107.487 21.5261 107.278 22.1862 107.222 22.9176ZM37.9588 18.2437C37.9832 17.927 38.0075 17.6104 38.0284 17.2982C38.0546 17.2982 38.084 17.2942 38.115 17.29C38.1497 17.2853 38.1864 17.2804 38.2231 17.2804C38.404 17.7264 38.5709 18.1545 38.7378 18.6005C38.9677 19.2244 39.2017 19.8456 39.4359 20.4673L39.4361 20.4677L39.4362 20.4682L39.4364 20.4686L39.4365 20.469L39.4367 20.4694L39.4369 20.4699L39.437 20.4703L39.4372 20.4707L39.4373 20.4711L39.4376 20.4718L39.4377 20.4721C39.8122 21.4664 40.1871 22.4618 40.5463 23.4706C40.8523 24.3447 41.381 24.755 42.2017 24.6837C42.6475 24.6531 43.0977 24.6458 43.55 24.6385H43.55C43.8882 24.633 44.2274 24.6276 44.5666 24.6123C45.3735 24.5766 45.4291 24.4874 45.1787 23.5776C44.5249 21.1693 43.7041 18.8324 42.8138 16.549C42.6051 16.0316 42.5912 15.657 43.0642 15.2467C45.2761 13.3914 46.222 10.7869 46.4446 7.73637C46.6811 4.54314 45.6099 2.74137 43.092 2.15268C41.4518 1.77708 39.7722 1.80638 38.0946 1.83563L38.0945 1.83563C37.7802 1.84112 37.4659 1.8466 37.152 1.84941C36.1517 1.85763 35.6124 1.86207 35.2972 2.13002C34.9286 2.44338 34.8664 3.11714 34.7314 4.57882C34.6113 5.89736 34.4895 7.21376 34.3678 8.52951L34.3678 8.53032L34.3677 8.53086L34.3677 8.53139L34.3676 8.53193L34.3676 8.53247L34.3675 8.53296L34.3675 8.5334C34.1369 11.0259 33.9065 13.516 33.6881 16.0138C33.5583 17.4791 33.4553 18.9513 33.3526 20.4218L33.3525 20.4228C33.2901 21.3152 33.2278 22.2068 33.1595 23.096C33.1038 23.8095 33.2708 24.309 33.8968 24.3982C34.8566 24.5231 35.8443 24.5945 36.832 24.5588C37.3885 24.541 37.6389 24.2377 37.6667 23.542C37.7223 22.097 37.8058 20.6342 37.8893 19.1892C37.9101 18.877 37.9345 18.5603 37.9588 18.2437ZM38.8539 9.86717L38.8539 9.86681L38.8539 9.86642C38.8703 9.63317 38.8868 9.39927 38.9048 9.16351L39.0995 6.9336C39.1413 6.39842 39.336 6.18435 39.7951 6.16651C41.8679 6.07732 42.4939 7.14767 41.7844 9.59165C41.2975 11.2507 40.4628 12 39.1969 12C38.7796 12 38.6822 11.8037 38.7378 11.3399C38.785 10.8445 38.8193 10.3573 38.8539 9.86717ZM29.64 24.3091L30.6416 24.3626H31.1563C32.0327 24.3804 32.0744 24.2912 32.0049 23.2209C31.8879 21.42 31.6654 19.6513 31.443 17.8839V17.8839V17.8839V17.8839V17.8838V17.8838V17.8838C31.2953 16.7099 31.1477 15.5366 31.0311 14.3547C30.971 13.7699 30.912 13.1845 30.853 12.599L30.853 12.5985L30.8529 12.5978L30.8528 12.5971L30.8528 12.5964L30.8527 12.5956L30.8526 12.5946C30.5427 9.52062 30.2324 6.44216 29.7652 3.40144C29.6539 2.68787 29.3896 2.40244 28.7914 2.3846C27.7564 2.36319 26.7214 2.32252 25.6865 2.28184C24.9965 2.25473 24.3065 2.22761 23.6165 2.20621C22.7123 2.18837 22.6149 2.2954 22.3645 3.36576C21.0151 9.1992 19.6657 15.0148 18.3163 20.8304L17.6486 23.6668C17.5651 24.0415 17.5512 24.4161 17.9547 24.4339C18.26 24.4545 18.5629 24.4841 18.8649 24.5135C19.6088 24.586 20.3466 24.6579 21.0986 24.5945C21.5855 24.541 21.7941 24.2377 21.9054 23.6668C22.0614 22.8352 22.2319 22.0097 22.4027 21.1831L22.4027 21.1829L22.4028 21.1827L22.4028 21.1825L22.4028 21.1823L22.4029 21.1821L22.4029 21.1819L22.403 21.1817L22.403 21.1815L22.403 21.1813L22.4031 21.1811L22.4031 21.1808L22.4032 21.1806C22.5216 20.6074 22.6401 20.0336 22.754 19.4568C22.8792 18.7967 23.1574 18.4578 23.7278 18.4578C24.4511 18.4578 25.1745 18.4221 25.8979 18.3686C26.7465 18.3151 26.8717 18.4578 26.9412 19.4568C26.9737 19.9143 27.0077 20.3719 27.0416 20.8295L27.0416 20.8296L27.0417 20.8297L27.0417 20.8298L27.0417 20.83L27.0417 20.8301L27.0417 20.8302C27.1097 21.746 27.1777 22.6618 27.2334 23.5776C27.2612 24.1307 27.4699 24.3626 27.9289 24.3269C28.3567 24.3001 28.7845 24.3035 29.2122 24.3068C29.3548 24.3079 29.4974 24.3091 29.64 24.3091ZM25.8284 14.0158H25.4388C23.815 13.9414 23.8352 13.8671 24.1287 12.7896C24.1872 12.5748 24.2566 12.3202 24.326 12.0178C24.6598 10.5193 24.9937 9.02081 25.3554 7.52231C25.3712 7.4573 25.3827 7.38119 25.3947 7.3022C25.4352 7.03434 25.4807 6.73332 25.7171 6.71954C25.97 6.70544 25.9882 6.99241 26.0054 7.26308C26.0099 7.33476 26.0144 7.40529 26.0231 7.46879L26.1035 8.11891L26.1035 8.11927C26.2991 9.70065 26.4934 11.2715 26.6769 12.8562C26.816 13.998 26.7882 14.0336 25.8284 14.0158ZM90.9603 1.76037C91.2733 1.76037 91.5863 1.76148 91.8993 1.7626C92.8383 1.76594 93.7773 1.76929 94.7163 1.74253C95.2867 1.72469 95.4814 1.97444 95.4258 2.67017C95.3284 3.84756 95.2588 5.04279 95.2171 6.22019C95.1893 6.89808 94.9667 7.05863 94.4381 7.09431C93.1582 7.20135 91.8923 7.23702 90.6125 7.21918C90.0422 7.21918 89.8474 7.46894 89.8474 8.11115C89.8474 8.46795 89.8227 8.82475 89.7979 9.18155C89.7856 9.35993 89.7732 9.53831 89.7639 9.71668C89.7083 10.6622 89.7778 10.7692 90.5847 10.7514C91.4273 10.7339 92.2566 10.6825 93.0985 10.6302L93.1582 10.6265C93.6034 10.5908 93.7842 10.787 93.7286 11.3579C93.6173 12.5174 93.5338 13.677 93.4782 14.8187C93.4504 15.4788 93.2 15.7464 92.6853 15.7642C92.3818 15.7702 92.0799 15.7782 91.7786 15.7862L91.7785 15.7862C91.1818 15.802 90.5872 15.8177 89.9865 15.8177C89.5274 15.8177 89.277 15.9783 89.277 16.6205C89.2631 17.2805 89.2075 17.9584 89.124 18.6363C89.0406 19.2785 89.2492 19.4926 89.75 19.4748C90.2693 19.4589 90.7859 19.4571 91.3022 19.4554C91.9476 19.4532 92.5925 19.451 93.2417 19.4212C93.8538 19.3856 94.0486 19.7067 94.0346 20.3846C94.0068 21.4368 94.0068 22.4712 94.0068 23.5056V23.5064C94.0068 24.0773 93.7425 24.3627 93.3113 24.4341C93.0331 24.4876 92.7409 24.4876 92.4488 24.4876L92.0772 24.4905H92.0772C89.8502 24.5083 87.6251 24.5261 85.4376 24.2557C84.589 24.1487 84.4638 23.9524 84.5194 22.8821C84.5352 22.6156 84.5495 22.3481 84.5638 22.0802C84.6129 21.1645 84.6622 20.2429 84.7698 19.332C85.0768 16.5762 85.2992 13.8153 85.5215 11.0547L85.5216 11.0537C85.7123 8.68589 85.903 6.31834 86.147 3.9546C86.3696 1.77821 86.3974 1.77821 88.1363 1.77821C88.5606 1.77821 88.9884 1.78267 89.4162 1.78713C89.8439 1.79159 90.2717 1.79605 90.696 1.79605H90.9603V1.76037ZM123.471 13.2152C123.29 13.2141 123.108 13.213 122.928 13.213C122.9 13.2219 122.876 13.2264 122.852 13.2308C122.827 13.2353 122.803 13.2398 122.775 13.2487H120.897C119.882 13.2487 119.868 13.2487 119.742 14.5153C119.436 17.4944 119.395 23.5063 119.395 23.5063C119.395 23.5063 119.395 24.8264 119.353 25.5221C119.325 26.1465 119.409 26.2714 119.895 26.3249C121.04 26.4778 122.216 26.4734 123.387 26.469C123.582 26.4683 123.777 26.4676 123.971 26.4676C124.138 26.4676 124.305 26.4497 124.472 26.4319C124.723 26.3962 124.876 26.2357 124.876 25.8967C124.883 25.5935 124.841 25.2902 124.799 24.9869C124.757 24.6836 124.716 24.3804 124.723 24.0771C124.737 23.6668 124.611 23.4884 124.264 23.5063C123.854 23.5277 123.45 23.5298 123.045 23.532H123.045H123.045H123.045C122.775 23.5334 122.505 23.5348 122.233 23.5419C121.94 23.5598 121.829 23.4349 121.871 23.0603C121.913 22.6678 121.954 22.2754 121.954 21.8829C121.968 21.5261 122.107 21.4191 122.372 21.4191C122.636 21.4191 122.897 21.4102 123.157 21.4012L123.158 21.4012C123.418 21.3923 123.679 21.3834 123.944 21.3834C124.236 21.3656 124.389 21.2228 124.403 20.8304C124.441 20.2116 124.49 19.6076 124.541 18.9914L124.556 18.8145C124.584 18.4756 124.486 18.3686 124.222 18.3864C123.721 18.4221 123.22 18.4399 122.719 18.4578C122.26 18.4578 122.219 18.4042 122.246 17.8512C122.251 17.7415 122.258 17.6318 122.264 17.5228C122.276 17.3127 122.288 17.1054 122.288 16.9057C122.288 16.5311 122.399 16.3884 122.733 16.3884C123.471 16.4062 124.208 16.3884 124.959 16.317C125.265 16.2814 125.404 16.1922 125.418 15.7997C125.432 15.104 125.474 14.4261 125.529 13.7303C125.557 13.3379 125.446 13.1773 125.112 13.1952C124.569 13.2219 124.018 13.2186 123.471 13.2152ZM51.9812 13.2489C51.9005 14.3234 51.8213 15.396 51.7422 16.468C51.5756 18.7242 51.4092 20.9774 51.23 23.2388C51.1465 24.3627 51.0213 24.5054 50.131 24.5411C49.199 24.5768 48.2947 24.4876 47.4044 24.2735C46.8758 24.1486 46.6393 23.8275 46.695 23.1318C47.2236 16.3707 47.8078 9.5918 48.5312 2.83072C48.6008 2.13499 48.8651 1.79604 49.4355 1.7782C49.7879 1.77027 50.1403 1.74825 50.4927 1.72623C50.9332 1.6987 51.3737 1.67117 51.8143 1.67117C52.8019 1.67117 52.9411 1.8674 52.8437 3.08047C52.6628 5.38173 52.4681 7.70084 52.2733 10.0021L51.9812 13.2489ZM113.287 12.892C113.287 12.892 114.498 12.3747 116.487 12.5709C118.476 12.7493 119.102 14.5868 118.657 17.2448C118.212 19.885 115.666 20.9911 115.666 20.9911C115.666 20.9911 115.875 25.5401 115.791 25.6114C115.708 25.6828 113.621 25.4687 113.621 25.4687C113.621 25.4687 113.496 18.6006 113.496 17.7443C113.496 16.888 113.287 12.892 113.287 12.892ZM115.778 17.5838C115.778 17.8514 116.028 18.1725 116.445 17.5838C116.877 16.9951 117.294 15.5501 116.376 14.9792C115.444 14.4084 115.638 14.9792 115.638 14.9792C115.638 14.9792 115.778 17.3162 115.778 17.5838Z" fill="#B11F2D"/>
</svg>
