<svg width="24" height="24" viewBox="0 0 24 24" fill="none" xmlns="http://www.w3.org/2000/svg">
<path fill-rule="evenodd" clip-rule="evenodd" d="M4.71783 20.5754C4.24452 20.1732 3.80045 19.7277 3.39797 19.2512C1.6903 17.227 0.75 14.652 0.75 12C0.75 8.99498 1.92018 6.16986 4.04502 4.04502C6.16986 1.92018 8.99498 0.75 12 0.75C15.005 0.75 17.8301 1.92018 19.955 4.04502C22.0798 6.16986 23.25 8.99498 23.25 12C23.25 14.652 22.3097 17.2271 20.6022 19.2509C20.1987 19.7287 19.7537 20.1751 19.2791 20.578C19.2766 20.5802 19.274 20.5824 19.2714 20.5845C17.2445 22.3034 14.6623 23.25 12 23.25C9.33912 23.25 6.75823 22.3044 4.73171 20.5871C4.72704 20.5833 4.72241 20.5794 4.71783 20.5754ZM4.26907 18.0946C2.90432 16.3644 2.15625 14.2129 2.15625 12C2.15625 6.57214 6.57214 2.15625 12 2.15625C17.4279 2.15625 21.8437 6.57214 21.8437 12C21.8437 14.213 21.0956 16.3647 19.7309 18.0946C19.6731 16.1349 18.8878 14.2963 17.5049 12.8951C16.688 12.0674 15.7158 11.4461 14.6533 11.0589C15.6077 10.2848 16.2188 9.10306 16.2188 7.78125C16.2188 5.455 14.3262 3.5625 12 3.5625C9.67375 3.5625 7.78125 5.455 7.78125 7.78125C7.78125 9.10309 8.39231 10.2849 9.34679 11.059C8.28426 11.4461 7.31203 12.0674 6.49506 12.8952C5.11217 14.2963 4.32691 16.1349 4.26907 18.0946ZM12 12L11.9074 12.0004C8.46882 12.0498 5.67187 14.8879 5.67187 18.3281C5.67187 18.7757 5.71875 19.2212 5.81135 19.6555C7.55737 21.0683 9.74576 21.8438 12 21.8438C14.2543 21.8438 16.4427 21.0683 18.1887 19.6555C18.2812 19.2212 18.3281 18.7757 18.3281 18.3281C18.3281 14.8879 15.5312 12.0498 12.0926 12.0004L12 12ZM12 10.5938C13.5508 10.5938 14.8125 9.33208 14.8125 7.78125C14.8125 6.23042 13.5508 4.96875 12 4.96875C10.4492 4.96875 9.1875 6.23042 9.1875 7.78125C9.1875 9.33208 10.4492 10.5938 12 10.5938Z" fill="#3D4E54"/>
</svg>
