<svg width="34" height="34" viewBox="0 0 34 34" fill="none" xmlns="http://www.w3.org/2000/svg">
<rect width="34" height="34" rx="6" fill="#E9672B"/>
<path fill-rule="evenodd" clip-rule="evenodd" d="M25.4431 12.3912C25.996 12.3912 26.4442 11.9429 26.4442 11.39C26.4442 10.8371 25.996 10.3889 25.4431 10.3889L8.68332 10.3889C8.1304 10.3889 7.68217 10.8371 7.68217 11.39C7.68217 11.9429 8.1304 12.3912 8.68332 12.3912L25.4431 12.3912ZM26.4444 16.9999C26.4444 17.5528 25.9962 18.0011 25.4433 18.0011L8.68355 18.0011C8.13063 18.0011 7.6824 17.5528 7.6824 16.9999C7.6824 16.447 8.13063 15.9988 8.68355 15.9988L25.4433 15.9988C25.9962 15.9988 26.4444 16.447 26.4444 16.9999ZM22.9673 22.6099C22.9673 23.1628 22.5191 23.6111 21.9662 23.6111L8.55681 23.6111C8.00389 23.6111 7.55566 23.1628 7.55566 22.6099C7.55566 22.057 8.00389 21.6088 8.55681 21.6088L21.9662 21.6088C22.5191 21.6088 22.9673 22.057 22.9673 22.6099Z" fill="#F9F9F9"/>
</svg>
