<svg width="38" height="36" viewBox="0 0 38 36" fill="none" xmlns="http://www.w3.org/2000/svg">
<path d="M29.9528 28.1026L24.4849 22.6347C25.9517 20.9484 26.8397 18.7483 26.8397 16.3437C26.8397 11.0504 22.5343 6.75 17.246 6.75C11.9528 6.75 7.65234 11.0554 7.65234 16.3437C7.65234 21.6319 11.9578 25.9374 17.246 25.9374C19.6507 25.9374 21.8508 25.0493 23.537 23.5826L29.0049 29.0504C29.1346 29.1802 29.3092 29.25 29.4788 29.25C29.6485 29.25 29.8231 29.1851 29.9528 29.0504C30.2122 28.791 30.2122 28.362 29.9528 28.1026ZM8.99436 16.3437C8.99436 11.7938 12.6961 8.09701 17.241 8.09701C21.7909 8.09701 25.4877 11.7988 25.4877 16.3437C25.4877 20.8886 21.7909 24.5953 17.241 24.5953C12.6961 24.5953 8.99436 20.8936 8.99436 16.3437Z" fill="#3D4E54"/>
</svg>
