<svg width="25" height="21" viewBox="0 0 25 21" fill="none" xmlns="http://www.w3.org/2000/svg">
<path fill-rule="evenodd" clip-rule="evenodd" d="M24.2978 6.59727C24.3509 6.68416 24.375 6.78071 24.375 6.88208C24.375 8.27236 23.535 9.46471 22.3379 9.99089C22.3427 10.0102 22.3427 10.0295 22.3427 10.0536V10.0536V20.1718C22.3427 20.4904 22.082 20.751 21.7634 20.751H11.0757H11.0612H6.57177H6.55729H3.35676C3.03816 20.751 2.77748 20.4904 2.77748 20.1718V9.98124C1.58513 9.45506 0.75 8.26753 0.75 6.88208C0.75 6.78071 0.778964 6.68416 0.827237 6.59727L4.33671 0.418278C4.43809 0.234839 4.63118 0.12381 4.83876 0.12381H20.2814C20.489 0.12381 20.6821 0.239666 20.7835 0.418278L24.2978 6.59727ZM19.9435 1.2872H5.17667L2.43474 6.11936H22.6903L19.9435 1.2872ZM15.372 9.10749C16.4678 9.10749 17.3802 8.3158 17.5636 7.2731H13.1804C13.3638 8.3158 14.2762 9.10749 15.372 9.10749ZM9.75782 9.10749C10.8536 9.10749 11.766 8.3158 11.9494 7.2731H7.56138C7.74964 8.3158 8.66201 9.10749 9.75782 9.10749ZM6.33523 7.2731H1.94718C2.13062 8.3158 3.04299 9.11232 4.13879 9.10749C5.2346 9.10749 6.15179 8.3158 6.33523 7.2731ZM7.15105 19.5925H10.4819H10.4867V13.3411C10.4867 12.8825 10.115 12.5156 9.66127 12.5156H7.97653C7.51793 12.5156 7.15105 12.8873 7.15105 13.3411V19.5925ZM11.6405 19.5925H21.1841V10.266C21.1503 10.266 21.1178 10.2673 21.0852 10.2685C21.0526 10.2697 21.02 10.2709 20.9862 10.2709C19.818 10.2709 18.7849 9.67711 18.1767 8.7744C17.5685 9.67711 16.5402 10.2709 15.372 10.2709C14.2086 10.2709 13.1756 9.67711 12.5673 8.7744C11.9543 9.67711 10.926 10.2709 9.75782 10.2709C8.5896 10.2709 7.55655 9.67711 6.9483 8.7744C6.34006 9.67711 5.30701 10.2709 4.13879 10.2709C4.07121 10.2709 4.00363 10.2709 3.93604 10.266V19.5973H5.98766V13.3411C5.98766 12.2453 6.88072 11.357 7.9717 11.357H9.65644C10.7522 11.357 11.6405 12.2501 11.6405 13.3411V19.5925ZM18.7946 7.27793C18.978 8.32063 19.8904 9.11232 20.9862 9.11232C22.082 9.11232 22.9944 8.3158 23.1826 7.27793H18.7946ZM14.3246 11.3571H17.5348C18.4134 11.3571 19.1278 12.0715 19.1278 12.9501V15.412C19.1278 16.2906 18.4134 17.005 17.5348 17.005H14.3246C13.446 17.005 12.7316 16.2906 12.7316 15.412V12.9501C12.7316 12.0715 13.446 11.3571 14.3246 11.3571ZM17.5348 15.8465C17.7713 15.8465 17.9692 15.6534 17.9692 15.412V12.9501C17.9692 12.7135 17.7761 12.5156 17.5348 12.5156H14.3246C14.088 12.5156 13.8901 12.7087 13.8901 12.9501V15.412C13.8901 15.6486 14.0832 15.8465 14.3246 15.8465H17.5348Z" fill="#E9672B"/>
</svg>
